<svg width="599" height="117" viewBox="0 0 599 117" fill="none" xmlns="http://www.w3.org/2000/svg">
<path d="M257.917 91.625C234.333 91.625 222.542 80.1042 222.542 57.0625C222.542 47.1458 225.812 39.2083 232.354 33.25C238.229 27.8333 244.937 25.125 252.479 25.125C260.687 25.125 267.104 27.875 271.729 33.375C276.021 38.5 278.167 45.3542 278.167 53.9375V58.8125H235.542C235.542 70.6042 240.354 77.8125 249.979 80.4375C252.271 81.0625 255.792 81.375 260.542 81.375C265.333 81.375 270.021 80.7292 274.604 79.4375V90C270.021 91.0833 264.458 91.625 257.917 91.625ZM265.667 49.625C265.667 45.625 264.562 42.25 262.354 39.5C259.771 36.3333 256.208 34.75 251.667 34.75C246.875 34.75 242.979 36.2708 239.979 39.3125C237.229 42.1458 235.854 45.5833 235.854 49.625H265.667ZM320.979 35.875C314.771 35.875 309.25 37.9792 304.417 42.1875V90.625H291.917V26.125H303.479L304.354 33.125C311.146 27.7917 318.167 25.125 325.417 25.125C333.083 25.125 338.708 27.4167 342.292 32C346.042 36.8333 347.917 44.625 347.917 55.375V90.625H335.417V55.375C335.417 45.0417 332.625 38.875 327.042 36.875C325.25 36.2083 323.229 35.875 320.979 35.875ZM403.354 115.25C399.729 116.167 395.062 116.625 389.354 116.625C383.687 116.625 379.542 116.208 376.917 115.375V104.25C380.208 105.667 384.229 106.375 388.979 106.375C393.771 106.417 397.292 106.104 399.542 105.438C401.792 104.771 403.562 103.688 404.854 102.188C407.187 99.4792 408.354 94.5833 408.354 87.5V84.1875C405.187 87.3542 401.021 89.5625 395.854 90.8125C393.771 91.3125 391.687 91.5625 389.604 91.5625C387.521 91.5625 385.479 91.3333 383.479 90.875C381.521 90.4167 379.562 89.6875 377.604 88.6875C375.646 87.6458 373.771 86.3125 371.979 84.6875C370.187 83.0208 368.604 80.9583 367.229 78.5C364.146 73.1667 362.604 66.6042 362.604 58.8125C362.521 51.6042 364.604 45.2708 368.854 39.8125C372.521 35.0625 377.562 31.375 383.979 28.75C389.812 26.3333 396.125 25.125 402.917 25.125C409.708 25.125 415.687 25.4583 420.854 26.125V87.5C420.854 103.083 415.021 112.333 403.354 115.25ZM408.354 35.25C405.687 34.9167 403.062 34.75 400.479 34.75C397.896 34.75 395 35.2292 391.792 36.1875C388.583 37.1458 385.771 38.6042 383.354 40.5625C378.062 44.8542 375.417 50.9375 375.417 58.8125C375.417 67.3542 377.479 73.5833 381.604 77.5C384.687 80.4583 388.458 81.9375 392.917 81.9375C398.292 81.9375 402.812 80.0417 406.479 76.25C407.354 75.2917 407.979 74.4375 408.354 73.6875V35.25ZM455.854 7.375C455.854 9.75 455.062 11.5833 453.479 12.875C451.937 14.125 450 14.75 447.667 14.75C445.333 14.75 443.396 14.125 441.854 12.875C440.354 11.5833 439.604 9.75 439.604 7.375C439.604 4.95833 440.354 3.125 441.854 1.875C443.396 0.625 445.333 0 447.667 0C450 0 451.937 0.625 453.479 1.875C455.062 3.125 455.854 4.95833 455.854 7.375ZM441.229 26.125H453.729V90.625H441.229V26.125ZM502.479 35.875C496.271 35.875 490.75 37.9792 485.917 42.1875V90.625H473.417V26.125H484.979L485.854 33.125C492.646 27.7917 499.667 25.125 506.917 25.125C514.583 25.125 520.208 27.4167 523.792 32C527.542 36.8333 529.417 44.625 529.417 55.375V90.625H516.917V55.375C516.917 45.0417 514.125 38.875 508.542 36.875C506.75 36.2083 504.729 35.875 502.479 35.875ZM578.292 91.625C554.708 91.625 542.917 80.1042 542.917 57.0625C542.917 47.1458 546.187 39.2083 552.729 33.25C558.604 27.8333 565.312 25.125 572.854 25.125C581.062 25.125 587.479 27.875 592.104 33.375C596.396 38.5 598.542 45.3542 598.542 53.9375V58.8125H555.917C555.917 70.6042 560.729 77.8125 570.354 80.4375C572.646 81.0625 576.167 81.375 580.917 81.375C585.708 81.375 590.396 80.7292 594.979 79.4375V90C590.396 91.0833 584.833 91.625 578.292 91.625ZM586.042 49.625C586.042 45.625 584.937 42.25 582.729 39.5C580.146 36.3333 576.583 34.75 572.042 34.75C567.25 34.75 563.354 36.2708 560.354 39.3125C557.604 42.1458 556.229 45.5833 556.229 49.625H586.042Z" fill="white"/>
<path d="M28.8 92.161C25.3867 92.161 21.9733 91.8623 18.56 91.265C15.1467 90.753 12.032 89.7717 9.216 88.321C6.48533 86.8703 4.26667 84.8223 2.56 82.177C0.853333 79.5317 1.19209e-07 76.1183 1.19209e-07 71.937C1.19209e-07 68.4383 0.682667 64.4277 2.048 59.905C3.49867 55.297 5.632 50.689 8.448 46.081C11.264 41.3877 14.7627 37.0357 18.944 33.025C23.2107 29.0143 28.1173 25.8143 33.664 23.425C39.296 20.9503 45.6107 19.713 52.608 19.713C62.848 19.713 70.3147 21.377 75.008 24.705C79.7013 27.9477 82.048 33.025 82.048 39.937C82.048 46.6783 80.64 53.1637 77.824 59.393C75.0933 65.6223 71.2533 71.2117 66.304 76.161C61.44 81.1103 55.808 85.0357 49.408 87.937C43.008 90.753 36.1387 92.161 28.8 92.161ZM27.776 90.241C32.9813 90.241 37.9307 89.2597 42.624 87.297C47.4027 85.249 51.712 82.5183 55.552 79.105C59.4773 75.6063 62.848 71.6383 65.664 67.201C68.5653 62.7637 70.784 58.113 72.32 53.249C73.9413 48.385 74.752 43.5637 74.752 38.785C74.752 33.4943 73.088 29.313 69.76 26.241C66.432 23.169 60.8 21.633 52.864 21.633C48.3413 21.633 43.8187 22.785 39.296 25.089C34.8587 27.3077 30.6773 30.2943 26.752 34.049C22.912 37.8037 19.456 41.9423 16.384 46.465C13.3973 50.9877 11.0507 55.553 9.344 60.161C7.63733 64.769 6.784 69.0783 6.784 73.089C6.784 78.465 8.36267 82.689 11.52 85.761C14.7627 88.7477 20.1813 90.241 27.776 90.241ZM95.968 97.537C91.616 97.537 88.0747 96.001 85.344 92.929C82.6987 89.9423 81.376 85.633 81.376 80.001C81.376 74.4543 82.1867 68.9503 83.808 63.489C85.4293 57.9423 87.5627 52.8223 90.208 48.129C93.28 42.753 97.2907 37.633 102.24 32.769C107.275 27.905 112.821 23.553 118.88 19.713C124.939 15.873 130.997 12.8863 137.056 10.753C139.445 9.89967 141.792 9.217 144.096 8.70499C146.485 8.10766 148.875 7.72366 151.264 7.55299C151.691 7.46766 152.032 7.76633 152.288 8.449C152.629 9.13167 152.587 9.51567 152.16 9.601C146.272 10.625 140.341 12.5877 134.368 15.489C128.395 18.305 122.72 21.889 117.344 26.241C111.968 30.593 107.189 35.5423 103.008 41.089C98.8267 46.5503 95.4987 52.3957 93.024 58.625C90.6347 64.8543 89.44 71.297 89.44 77.953C89.44 80.1717 89.824 82.6463 90.592 85.377C91.36 88.0223 92.64 90.241 94.432 92.033C96.3093 93.825 98.8267 94.593 101.984 94.337C102.411 94.2517 102.795 94.1663 103.136 94.081C103.563 93.9957 103.947 93.9103 104.288 93.825H104.416C104.928 93.825 105.184 93.9957 105.184 94.337C105.184 95.2757 104.459 95.9583 103.008 96.385C100.448 97.153 98.1013 97.537 95.968 97.537ZM125.354 89.857C125.354 89.857 124.287 89.9423 122.154 90.113C120.106 90.1983 116.181 90.4543 110.378 90.881L111.53 89.217C111.786 89.3023 112.341 89.345 113.194 89.345C114.645 89.345 116.394 89.0463 118.442 88.449C120.575 87.7663 122.111 86.6143 123.05 84.993C123.477 84.225 123.989 82.9877 124.586 81.281C125.269 79.489 125.951 77.569 126.634 75.521C127.402 73.473 128.085 71.553 128.682 69.761C129.279 67.8837 129.749 66.3903 130.09 65.281L134.442 51.841C135.637 47.9157 136.234 45.3557 136.234 44.161C136.234 43.4783 136.106 43.0517 135.85 42.881C135.679 42.625 135.423 42.4117 135.082 42.241C134.655 41.985 133.887 42.1983 132.778 42.881C131.669 43.5637 130.517 44.3743 129.322 45.313C128.469 45.9103 127.658 46.5503 126.89 47.233C126.122 47.9157 125.525 48.3423 125.098 48.513C125.354 47.5743 125.525 46.9343 125.61 46.593C125.781 46.1663 125.951 45.6543 126.122 45.057C127.317 44.289 128.725 43.4357 130.346 42.497C132.053 41.5583 133.93 40.449 135.978 39.169C137.002 38.4863 138.495 37.5477 140.458 36.353C142.421 35.073 144.127 34.0063 145.578 33.153C146.005 32.8117 146.389 32.641 146.73 32.641C146.986 32.641 147.114 32.8117 147.114 33.153C147.114 33.5797 146.986 34.049 146.73 34.561C145.109 37.7183 143.615 41.217 142.25 45.057C140.885 48.897 139.349 53.5903 137.642 59.137L135.722 65.409C135.039 67.5423 134.271 69.9317 133.418 72.577C132.65 75.137 131.967 77.569 131.37 79.873C130.773 82.0917 130.389 83.7983 130.218 84.993C130.047 86.3583 130.559 87.3823 131.754 88.065C132.949 88.6623 134.271 89.0463 135.722 89.217C137.258 89.3023 138.282 89.345 138.794 89.345L137.386 90.881C136.959 90.7103 136.021 90.5823 134.57 90.497C133.119 90.3263 131.541 90.1983 129.834 90.113C128.127 89.9423 126.634 89.857 125.354 89.857ZM135.999 96.385C135.658 96.4703 135.359 96.1717 135.103 95.489C134.762 94.8063 134.762 94.4223 135.103 94.337C140.991 93.3983 146.922 91.521 152.895 88.705C158.868 85.8037 164.543 82.177 169.919 77.825C175.38 73.473 180.202 68.5663 184.383 63.105C188.564 57.5583 191.85 51.6703 194.239 45.441C196.714 39.1263 197.951 32.641 197.951 25.985C197.951 23.681 197.567 21.2063 196.799 18.561C196.031 15.9157 194.751 13.697 192.959 11.905C191.167 10.113 188.65 9.345 185.407 9.601C184.98 9.68633 184.554 9.77166 184.127 9.85699C183.786 9.94233 183.402 10.0277 182.975 10.113H182.847C182.42 10.113 182.207 9.94233 182.207 9.601C182.207 9.25966 182.378 8.87566 182.719 8.449C183.146 8.02233 183.7 7.72366 184.383 7.55299C186.858 6.78499 189.162 6.40099 191.295 6.40099C195.732 6.40099 199.274 7.97966 201.919 11.137C204.564 14.209 205.887 18.6463 205.887 24.449C205.887 29.9103 205.076 35.3717 203.455 40.833C201.919 46.209 199.786 51.201 197.055 55.809C194.068 61.185 190.058 66.3477 185.023 71.297C179.988 76.161 174.442 80.513 168.383 84.353C162.41 88.1077 156.351 91.0517 150.207 93.185C147.903 94.0383 145.556 94.721 143.167 95.233C140.778 95.8303 138.388 96.2143 135.999 96.385Z" fill="white"/>
<path d="M208.206 1.33398H209.221L212.102 4.94727L214.993 1.33398H216.008V9.64453H214.329V4.42969L213.733 5.21094L212.102 7.06641L210.481 5.21094L209.885 4.42969V9.64453H208.206V1.33398ZM202.942 2.82812H200.52V1.34375H207.043V2.82812H204.612V9.64453H202.942V2.82812Z" fill="white"/>
</svg>
