<svg width="216" height="97" viewBox="0 0 216 97" fill="none" xmlns="http://www.w3.org/2000/svg">
<path d="M28.8 90.827C25.3867 90.827 21.9733 90.5283 18.56 89.931C15.1467 89.419 12.032 88.4377 9.216 86.987C6.48533 85.5363 4.26667 83.4883 2.56 80.843C0.853333 78.1977 1.19209e-07 74.7843 1.19209e-07 70.603C1.19209e-07 67.1043 0.682667 63.0937 2.048 58.571C3.49867 53.963 5.632 49.355 8.448 44.747C11.264 40.0537 14.7627 35.7017 18.944 31.691C23.2107 27.6803 28.1173 24.4803 33.664 22.091C39.296 19.6163 45.6107 18.379 52.608 18.379C62.848 18.379 70.3147 20.043 75.008 23.371C79.7013 26.6137 82.048 31.691 82.048 38.603C82.048 45.3443 80.64 51.8297 77.824 58.059C75.0933 64.2883 71.2533 69.8777 66.304 74.827C61.44 79.7763 55.808 83.7017 49.408 86.603C43.008 89.419 36.1387 90.827 28.8 90.827ZM27.776 88.907C32.9813 88.907 37.9307 87.9257 42.624 85.963C47.4027 83.915 51.712 81.1843 55.552 77.771C59.4773 74.2723 62.848 70.3043 65.664 65.867C68.5653 61.4297 70.784 56.779 72.32 51.915C73.9413 47.051 74.752 42.2297 74.752 37.451C74.752 32.1603 73.088 27.979 69.76 24.907C66.432 21.835 60.8 20.299 52.864 20.299C48.3413 20.299 43.8187 21.451 39.296 23.755C34.8587 25.9737 30.6773 28.9603 26.752 32.715C22.912 36.4697 19.456 40.6083 16.384 45.131C13.3973 49.6537 11.0507 54.219 9.344 58.827C7.63733 63.435 6.784 67.7443 6.784 71.755C6.784 77.131 8.36267 81.355 11.52 84.427C14.7627 87.4137 20.1813 88.907 27.776 88.907ZM95.968 96.203C91.616 96.203 88.0747 94.667 85.344 91.595C82.6987 88.6083 81.376 84.299 81.376 78.667C81.376 73.1203 82.1867 67.6163 83.808 62.155C85.4293 56.6083 87.5627 51.4883 90.208 46.795C93.28 41.419 97.2907 36.299 102.24 31.435C107.275 26.571 112.821 22.219 118.88 18.379C124.939 14.539 130.997 11.5523 137.056 9.41901C139.445 8.56568 141.792 7.88301 144.096 7.37101C146.485 6.77368 148.875 6.38968 151.264 6.21901C151.691 6.13368 152.032 6.43235 152.288 7.11501C152.629 7.79768 152.587 8.18168 152.16 8.26701C146.272 9.29101 140.341 11.2537 134.368 14.155C128.395 16.971 122.72 20.555 117.344 24.907C111.968 29.259 107.189 34.2083 103.008 39.755C98.8267 45.2163 95.4987 51.0617 93.024 57.291C90.6347 63.5203 89.44 69.963 89.44 76.619C89.44 78.8377 89.824 81.3123 90.592 84.043C91.36 86.6883 92.64 88.907 94.432 90.699C96.3093 92.491 98.8267 93.259 101.984 93.003C102.411 92.9177 102.795 92.8323 103.136 92.747C103.563 92.6617 103.947 92.5763 104.288 92.491H104.416C104.928 92.491 105.184 92.6617 105.184 93.003C105.184 93.9417 104.459 94.6243 103.008 95.051C100.448 95.819 98.1013 96.203 95.968 96.203ZM125.354 88.523C125.354 88.523 124.287 88.6083 122.154 88.779C120.106 88.8643 116.181 89.1203 110.378 89.547L111.53 87.883C111.786 87.9683 112.341 88.011 113.194 88.011C114.645 88.011 116.394 87.7123 118.442 87.115C120.575 86.4323 122.111 85.2803 123.05 83.659C123.477 82.891 123.989 81.6537 124.586 79.947C125.269 78.155 125.951 76.235 126.634 74.187C127.402 72.139 128.085 70.219 128.682 68.427C129.279 66.5497 129.749 65.0563 130.09 63.947L134.442 50.507C135.637 46.5817 136.234 44.0217 136.234 42.827C136.234 42.1443 136.106 41.7177 135.85 41.547C135.679 41.291 135.423 41.0777 135.082 40.907C134.655 40.651 133.887 40.8643 132.778 41.547C131.669 42.2297 130.517 43.0403 129.322 43.979C128.469 44.5763 127.658 45.2163 126.89 45.899C126.122 46.5817 125.525 47.0083 125.098 47.179C125.354 46.2403 125.525 45.6003 125.61 45.259C125.781 44.8323 125.951 44.3203 126.122 43.723C127.317 42.955 128.725 42.1017 130.346 41.163C132.053 40.2243 133.93 39.115 135.978 37.835C137.002 37.1523 138.495 36.2137 140.458 35.019C142.421 33.739 144.127 32.6723 145.578 31.819C146.005 31.4777 146.389 31.307 146.73 31.307C146.986 31.307 147.114 31.4777 147.114 31.819C147.114 32.2457 146.986 32.715 146.73 33.227C145.109 36.3843 143.615 39.883 142.25 43.723C140.885 47.563 139.349 52.2563 137.642 57.803L135.722 64.075C135.039 66.2083 134.271 68.5977 133.418 71.243C132.65 73.803 131.967 76.235 131.37 78.539C130.773 80.7577 130.389 82.4643 130.218 83.659C130.047 85.0243 130.559 86.0483 131.754 86.731C132.949 87.3283 134.271 87.7123 135.722 87.883C137.258 87.9683 138.282 88.011 138.794 88.011L137.386 89.547C136.959 89.3763 136.021 89.2483 134.57 89.163C133.119 88.9923 131.541 88.8643 129.834 88.779C128.127 88.6083 126.634 88.523 125.354 88.523ZM135.999 95.051C135.658 95.1363 135.359 94.8377 135.103 94.155C134.762 93.4723 134.762 93.0883 135.103 93.003C140.991 92.0643 146.922 90.187 152.895 87.371C158.868 84.4697 164.543 80.843 169.919 76.491C175.38 72.139 180.202 67.2323 184.383 61.771C188.564 56.2243 191.85 50.3363 194.239 44.107C196.714 37.7923 197.951 31.307 197.951 24.651C197.951 22.347 197.567 19.8723 196.799 17.227C196.031 14.5817 194.751 12.363 192.959 10.571C191.167 8.77901 188.65 8.01101 185.407 8.26701C184.98 8.35235 184.554 8.43768 184.127 8.52301C183.786 8.60834 183.402 8.69368 182.975 8.77901H182.847C182.42 8.77901 182.207 8.60835 182.207 8.26701C182.207 7.92568 182.378 7.54168 182.719 7.11501C183.146 6.68835 183.7 6.38968 184.383 6.21901C186.858 5.45101 189.162 5.06701 191.295 5.06701C195.732 5.06701 199.274 6.64568 201.919 9.80301C204.564 12.875 205.887 17.3123 205.887 23.115C205.887 28.5763 205.076 34.0377 203.455 39.499C201.919 44.875 199.786 49.867 197.055 54.475C194.068 59.851 190.058 65.0137 185.023 69.963C179.988 74.827 174.442 79.179 168.383 83.019C162.41 86.7737 156.351 89.7177 150.207 91.851C147.903 92.7043 145.556 93.387 143.167 93.899C140.778 94.4963 138.388 94.8803 135.999 95.051Z" fill="white"/>
<path d="M208.206 0H209.221L212.102 3.61328L214.993 0H216.008V8.31055H214.329V3.0957L213.733 3.87695L212.102 5.73242L210.481 3.87695L209.885 3.0957V8.31055H208.206V0ZM202.942 1.49414H200.52V0.00976562H207.043V1.49414H204.612V8.31055H202.942V1.49414Z" fill="white"/>
</svg>
